<svg xmlns="http://www.w3.org/2000/svg" width="1440" height="680" viewBox="0 0 1440 680" fill="none">
<g clip-path="url(#clip0_1413_2)">
<path fill-rule="evenodd" clip-rule="evenodd" d="M0 0H311.97L0 227.856V0ZM607.475 680V0H969.119C902.429 0 840.222 19.1871 787.722 52.3404C692.345 112.569 629 218.889 629 340C629 461.111 692.345 567.431 787.722 627.66C840.222 660.813 902.429 680 969.118 680H607.475ZM1440 680H1442.5V408H1440V272H1442.5V0H1440V272H969.119C931.55 272 901.095 302.445 901.095 340C901.095 377.556 931.55 408 969.118 408H1440V680ZM0 680V561.3L228.499 402.087V680H0Z" fill="white"/>
</g>
<defs>
<clipPath id="clip0_1413_2">
<rect width="1440" height="680" fill="white"/>
</clipPath>
</defs>
</svg>